<svg width="341" height="331" viewBox="0 0 341 331" fill="none" xmlns="http://www.w3.org/2000/svg">
<mask id="mask0_1163_93" style="mask-type:alpha" maskUnits="userSpaceOnUse" x="0" y="0" width="353" height="331">
<path d="M176.375 0.505005C273.621 0.505005 352.575 74.3356 352.575 165.274C352.575 256.213 273.621 330.044 176.375 330.044C79.1288 330.044 0.175781 256.213 0.175781 165.274C0.175781 74.3356 79.1288 0.505005 176.375 0.505005ZM176.375 82.8896C127.752 82.8896 88.2789 119.805 88.2789 165.274C88.2789 210.743 127.752 247.659 176.375 247.659C224.998 247.659 264.479 210.743 264.479 165.274C264.479 119.805 224.998 82.8896 176.375 82.8896Z" fill="white"/>
</mask>
<g mask="url(#mask0_1163_93)">
<path fill-rule="evenodd" clip-rule="evenodd" d="M176.374 0.502563C273.62 0.502563 352.574 74.3332 352.574 165.272C352.574 256.21 273.62 330.041 176.374 330.041C79.1274 330.041 0.174316 256.21 0.174316 165.272C0.174316 74.3332 79.1274 0.502563 176.374 0.502563ZM176.374 82.8872C224.997 82.8872 264.477 119.802 264.477 165.272C264.477 210.741 224.997 247.656 176.374 247.656C127.75 247.656 88.2775 210.741 88.2775 165.272C88.2775 119.802 127.75 82.8872 176.374 82.8872Z" fill="url(#paint0_linear_1163_93)"/>
<mask id="mask1_1163_93" style="mask-type:alpha" maskUnits="userSpaceOnUse" x="0" y="0" width="179" height="172">
<path d="M176.377 0.507446L179 0.527993V82.928C178.129 82.9041 177.255 82.8921 176.377 82.8921C127.754 82.8921 88.2814 119.807 88.2814 165.277C88.2814 167.508 88.3764 169.719 88.563 171.907H0.318587C0.225305 169.708 0.178223 167.497 0.178223 165.277C0.178223 74.3381 79.1313 0.507446 176.377 0.507446Z" fill="white"/>
</mask>
<g mask="url(#mask1_1163_93)">
<path fill-rule="evenodd" clip-rule="evenodd" d="M-23.6919 171.906H178.994V-38.5403H-23.6919V171.906Z" fill="url(#paint1_linear_1163_93)"/>
</g>
</g>
<defs>
<linearGradient id="paint0_linear_1163_93" x1="216.355" y1="117.431" x2="29.2062" y2="317.056" gradientUnits="userSpaceOnUse">
<stop stop-color="#00B5FF"/>
<stop offset="1" stop-color="white"/>
</linearGradient>
<linearGradient id="paint1_linear_1163_93" x1="172.649" y1="1.33773" x2="37.2618" y2="179.908" gradientUnits="userSpaceOnUse">
<stop stop-color="#1363DF"/>
<stop offset="1" stop-color="#00B5FF"/>
</linearGradient>
</defs>
</svg>
