<svg width="1113" height="1029" viewBox="0 0 1113 1029" fill="none" xmlns="http://www.w3.org/2000/svg">
<g style="mix-blend-mode:overlay" opacity="0.5">
<path fill-rule="evenodd" clip-rule="evenodd" d="M56.5423 986.743L56.5423 1028.42L45.4283 1028.42L45.4283 986.743L0.972488 986.743L0.972488 976.324L45.4283 976.324L45.4283 882.55L0.972492 882.55L0.972493 872.131L45.4283 872.131L45.4283 778.357L0.972497 778.357L0.972498 767.937L45.4283 767.937L45.4283 674.163L0.972502 674.163L0.972503 663.744L45.4283 663.744L45.4283 569.97L0.972507 569.97L0.972507 559.551L45.4283 559.551L45.4283 465.776L0.972512 465.776L0.972512 455.357L45.4283 455.357L45.4283 361.583L0.972517 361.583L0.972517 351.164L45.4283 351.164L45.4283 257.39L0.972522 257.39L0.972522 246.97L45.4283 246.97L45.4283 153.196L0.972526 153.196L0.972527 142.777L45.4283 142.777L45.4283 -13.5132L56.5424 -13.5132L56.5424 142.777L156.568 142.777L156.568 -13.5132L167.682 -13.5132L167.682 142.777L267.708 142.777L267.708 -13.5132L278.822 -13.5132L278.822 142.777L378.847 142.777L378.847 -13.5132L389.961 -13.5132L389.961 142.777L489.987 142.777L489.987 -13.5132L501.101 -13.5132L501.101 142.777L601.126 142.777L601.126 -13.5132L612.24 -13.5132L612.24 142.777L712.266 142.777L712.266 -13.5132L723.38 -13.5132L723.38 142.777L823.406 142.777L823.406 -13.5132L834.52 -13.5132L834.52 142.777L934.545 142.777L934.545 -13.5132L945.659 -13.5132L945.659 142.777L1112.37 142.777L1112.37 153.196L945.659 153.196L945.659 246.97L1112.37 246.97L1112.37 257.39L945.659 257.39L945.659 351.164L1112.37 351.164L1112.37 361.583L945.659 361.583L945.659 455.357L1112.37 455.357L1112.37 465.777L945.659 465.777L945.659 559.551L1112.37 559.551L1112.37 569.97L945.659 569.97L945.659 663.744L1112.37 663.744L1112.37 674.163L945.659 674.163L945.659 767.937L1112.37 767.937L1112.37 778.357L945.659 778.357L945.659 872.131L1112.37 872.131L1112.37 882.55L945.659 882.55L945.659 976.324L1112.37 976.324L1112.37 986.744L945.659 986.744L945.659 1028.42L934.545 1028.42L934.545 986.744L834.52 986.744L834.52 1028.42L823.406 1028.42L823.406 986.744L723.38 986.744L723.38 1028.42L712.266 1028.42L712.266 986.744L612.24 986.744L612.24 1028.42L601.126 1028.42L601.126 986.744L501.101 986.744L501.101 1028.42L489.987 1028.42L489.987 986.744L389.961 986.744L389.961 1028.42L378.847 1028.42L378.847 986.744L278.821 986.743L278.821 1028.42L267.708 1028.42L267.708 986.743L167.682 986.743L167.682 1028.42L156.568 1028.42L156.568 986.743L56.5423 986.743ZM56.5423 976.324L156.568 976.324L156.568 882.55L56.5423 882.55L56.5423 976.324ZM56.5423 872.131L156.568 872.131L156.568 778.357L56.5423 778.357L56.5423 872.131ZM56.5423 767.937L156.568 767.937L156.568 674.163L56.5423 674.163L56.5423 767.937ZM56.5423 663.744L156.568 663.744L156.568 569.97L56.5423 569.97L56.5423 663.744ZM56.5423 559.551L156.568 559.551L156.568 465.776L56.5423 465.776L56.5423 559.551ZM56.5423 455.357L156.568 455.357L156.568 361.583L56.5423 361.583L56.5423 455.357ZM56.5423 351.164L156.568 351.164L156.568 257.39L56.5423 257.39L56.5423 351.164ZM56.5423 246.97L156.568 246.97L156.568 153.196L56.5424 153.196L56.5423 246.97ZM167.682 153.196L167.682 246.97L267.708 246.97L267.708 153.196L167.682 153.196ZM167.682 257.39L167.682 351.164L267.708 351.164L267.708 257.39L167.682 257.39ZM167.682 361.583L167.682 455.357L267.708 455.357L267.708 361.583L167.682 361.583ZM167.682 465.776L167.682 559.551L267.708 559.551L267.708 465.776L167.682 465.776ZM167.682 569.97L167.682 663.744L267.708 663.744L267.708 569.97L167.682 569.97ZM167.682 674.163L167.682 767.937L267.708 767.937L267.708 674.163L167.682 674.163ZM167.682 778.357L167.682 872.131L267.708 872.131L267.708 778.357L167.682 778.357ZM167.682 882.55L167.682 976.324L267.708 976.324L267.708 882.55L167.682 882.55ZM278.821 976.324L378.847 976.324L378.847 882.55L278.821 882.55L278.821 976.324ZM278.821 872.131L378.847 872.131L378.847 778.357L278.821 778.357L278.821 872.131ZM278.821 767.937L378.847 767.937L378.847 674.163L278.822 674.163L278.821 767.937ZM278.822 663.744L378.847 663.744L378.847 569.97L278.822 569.97L278.822 663.744ZM278.822 559.551L378.847 559.551L378.847 465.776L278.822 465.776L278.822 559.551ZM278.822 455.357L378.847 455.357L378.847 361.583L278.822 361.583L278.822 455.357ZM278.822 351.164L378.847 351.164L378.847 257.39L278.822 257.39L278.822 351.164ZM278.822 246.97L378.847 246.97L378.847 153.196L278.822 153.196L278.822 246.97ZM389.961 153.196L389.961 246.97L489.987 246.97L489.987 153.196L389.961 153.196ZM389.961 257.39L389.961 351.164L489.987 351.164L489.987 257.39L389.961 257.39ZM389.961 361.583L389.961 455.357L489.987 455.357L489.987 361.583L389.961 361.583ZM389.961 465.776L389.961 559.551L489.987 559.551L489.987 465.776L389.961 465.776ZM389.961 569.97L389.961 663.744L489.987 663.744L489.987 569.97L389.961 569.97ZM389.961 674.163L389.961 767.937L489.987 767.937L489.987 674.163L389.961 674.163ZM389.961 778.357L389.961 872.131L489.987 872.131L489.987 778.357L389.961 778.357ZM389.961 882.55L389.961 976.324L489.987 976.324L489.987 882.55L389.961 882.55ZM501.101 976.324L601.126 976.324L601.126 882.55L501.101 882.55L501.101 976.324ZM501.101 872.131L601.126 872.131L601.126 778.357L501.101 778.357L501.101 872.131ZM501.101 767.937L601.126 767.937L601.126 674.163L501.101 674.163L501.101 767.937ZM501.101 663.744L601.126 663.744L601.126 569.97L501.101 569.97L501.101 663.744ZM501.101 559.551L601.126 559.551L601.126 465.776L501.101 465.776L501.101 559.551ZM501.101 455.357L601.126 455.357L601.126 361.583L501.101 361.583L501.101 455.357ZM501.101 351.164L601.126 351.164L601.126 257.39L501.101 257.39L501.101 351.164ZM501.101 246.97L601.126 246.97L601.126 153.196L501.101 153.196L501.101 246.97ZM612.24 153.196L612.24 246.97L712.266 246.97L712.266 153.196L612.24 153.196ZM612.24 257.39L612.24 351.164L712.266 351.164L712.266 257.39L612.24 257.39ZM612.24 361.583L612.24 455.357L712.266 455.357L712.266 361.583L612.24 361.583ZM612.24 465.776L612.24 559.551L712.266 559.551L712.266 465.777L612.24 465.776ZM612.24 569.97L612.24 663.744L712.266 663.744L712.266 569.97L612.24 569.97ZM612.24 674.163L612.24 767.937L712.266 767.937L712.266 674.163L612.24 674.163ZM612.24 778.357L612.24 872.131L712.266 872.131L712.266 778.357L612.24 778.357ZM612.24 882.55L612.24 976.324L712.266 976.324L712.266 882.55L612.24 882.55ZM723.38 976.324L823.406 976.324L823.406 882.55L723.38 882.55L723.38 976.324ZM723.38 872.131L823.406 872.131L823.406 778.357L723.38 778.357L723.38 872.131ZM723.38 767.937L823.406 767.937L823.406 674.163L723.38 674.163L723.38 767.937ZM723.38 663.744L823.406 663.744L823.406 569.97L723.38 569.97L723.38 663.744ZM723.38 559.551L823.406 559.551L823.406 465.777L723.38 465.777L723.38 559.551ZM723.38 455.357L823.406 455.357L823.406 361.583L723.38 361.583L723.38 455.357ZM723.38 351.164L823.406 351.164L823.406 257.39L723.38 257.39L723.38 351.164ZM723.38 246.97L823.406 246.97L823.406 153.196L723.38 153.196L723.38 246.97ZM834.52 153.196L834.52 246.97L934.545 246.97L934.545 153.196L834.52 153.196ZM834.52 257.39L834.52 351.164L934.545 351.164L934.545 257.39L834.52 257.39ZM834.52 361.583L834.52 455.357L934.545 455.357L934.545 361.583L834.52 361.583ZM834.52 465.777L834.52 559.551L934.545 559.551L934.545 465.777L834.52 465.777ZM834.52 569.97L834.52 663.744L934.545 663.744L934.545 569.97L834.52 569.97ZM834.52 674.163L834.52 767.937L934.545 767.937L934.545 674.163L834.52 674.163ZM834.52 778.357L834.52 872.131L934.545 872.131L934.545 778.357L834.52 778.357ZM834.52 882.55L834.52 976.324L934.545 976.324L934.545 882.55L834.52 882.55Z" fill="url(#paint0_linear_1163_69)"/>
</g>
<defs>
<linearGradient id="paint0_linear_1163_69" x1="1048.31" y1="1175.9" x2="-9.19022" y2="-133.209" gradientUnits="userSpaceOnUse">
<stop stop-color="white"/>
<stop offset="0.901212" stop-color="white" stop-opacity="0"/>
</linearGradient>
</defs>
</svg>
