<svg width="226" height="128" viewBox="0 0 226 128" fill="none" xmlns="http://www.w3.org/2000/svg">
<path d="M67.8651 0.950317H157.668C194.865 0.950317 225.021 29.2215 225.021 64.0932C225.021 98.9648 194.865 127.236 157.668 127.236H67.8651C30.6686 127.236 0.512695 98.9648 0.512695 64.0932C0.512695 29.2215 30.6686 0.950317 67.8651 0.950317Z" fill="url(#paint0_linear_1163_101)"/>
<path fill-rule="evenodd" clip-rule="evenodd" d="M153.045 120.476C186.374 120.476 213.393 95.1458 213.393 63.8997C213.393 32.6537 186.374 7.32385 153.045 7.32385C119.716 7.32385 92.6973 32.6537 92.6973 63.8997C92.6973 95.1458 119.716 120.476 153.045 120.476Z" fill="white"/>
<defs>
<linearGradient id="paint0_linear_1163_101" x1="0.512695" y1="61.6627" x2="103.51" y2="61.6627" gradientUnits="userSpaceOnUse">
<stop stop-color="#1363DF"/>
<stop offset="1" stop-color="#00B6FF"/>
</linearGradient>
</defs>
</svg>
