<svg width="705" height="541" viewBox="0 0 705 541" fill="none" xmlns="http://www.w3.org/2000/svg">
<path fill-rule="evenodd" clip-rule="evenodd" d="M37.8147 294.97L160.473 384.845C170.479 392.175 184.559 392.175 194.565 384.845L317.223 294.97C331.109 284.792 331.314 265.237 317.639 254.808L194.981 161.308C184.822 153.564 170.216 153.564 160.057 161.308L37.3992 254.808C23.7237 265.232 23.9285 284.792 37.8147 294.97Z" fill="#DAF7FF"/>
<path d="M673.772 91.9245H173.392C156.414 91.9245 142.649 105.689 142.649 122.667V509.614C142.649 526.593 156.414 540.357 173.392 540.357H673.772C690.751 540.357 704.515 526.593 704.515 509.614V122.667C704.515 105.689 690.751 91.9245 673.772 91.9245Z" fill="url(#paint0_linear_1163_79)"/>
<path d="M556.846 0.417236H24.5602C10.9959 0.417236 0.000488281 10.6775 0.000488281 23.3281V398.85C0.000488281 426.464 22.3862 448.85 50.0005 448.85H531.405C559.019 448.85 581.405 426.464 581.405 398.85V23.3227C581.405 10.672 570.404 0.417236 556.84 0.417236H556.846Z" fill="url(#paint1_linear_1163_79)"/>
<mask id="mask0_1163_79" style="mask-type:alpha" maskUnits="userSpaceOnUse" x="48" y="191" width="483" height="223">
<path d="M48.0562 265.535V413.567H530.107V230.345C514.863 202.952 464.24 165.576 395.308 230.192C298.101 321.314 247.966 250.055 174.355 207.499C154.843 196.219 138.104 191.698 123.804 191.698C66.0122 191.698 48.0562 265.535 48.0562 265.535Z" fill="white"/>
</mask>
<g mask="url(#mask0_1163_79)">
<path fill-rule="evenodd" clip-rule="evenodd" d="M48.0596 265.535V413.567H530.11V230.345C514.866 202.952 464.243 165.577 395.311 230.193C298.105 321.314 247.969 250.055 174.358 207.499C154.847 196.219 138.108 191.698 123.807 191.698C66.0156 191.698 48.0596 265.535 48.0596 265.535Z" fill="url(#paint2_linear_1163_79)"/>
</g>
<path fill-rule="evenodd" clip-rule="evenodd" d="M50.3433 263.679C50.3433 263.679 55.1944 243.759 67.9746 224.794C76.3836 212.318 88.2275 200.213 104.501 194.673C121.969 188.73 144.451 190.444 173.124 207.018C198.878 221.907 221.758 240.315 244.785 254.041C268.326 268.078 292.049 277.236 318.985 273.339C341.947 270.021 367.332 257.174 396.965 229.394C423.953 204.099 448.004 194.657 468.192 194.286C498.077 193.74 519.196 213.131 528.032 229.012C528.623 230.082 530.039 230.502 531.186 229.946C532.333 229.389 532.778 228.074 532.187 227.004C522.73 210.009 500.078 189.341 468.099 189.925C447.038 190.307 421.806 199.924 393.647 226.316C360.228 257.643 332.549 269.573 307.486 269.868C282.446 270.163 260.134 258.887 237.505 244.255C217.709 231.463 197.708 216.089 175.588 203.302C145.241 185.761 121.383 184.277 102.898 190.564C85.6117 196.447 72.9427 209.212 64.0071 222.463C50.7822 242.089 45.7731 262.708 45.7731 262.708C45.4864 263.881 46.2764 265.054 47.5404 265.322C48.7985 265.589 50.0566 264.852 50.3433 263.674V263.679Z" fill="white"/>
<path d="M359.191 55.2646H95.6478C82.0285 55.2646 70.9878 66.3053 70.9878 79.9246C70.9878 93.544 82.0285 104.585 95.6478 104.585H359.191C372.81 104.585 383.851 93.544 383.851 79.9246C383.851 66.3053 372.81 55.2646 359.191 55.2646Z" fill="url(#paint3_linear_1163_79)"/>
<path d="M375.585 136.635H79.2533C74.6884 136.635 70.9878 140.335 70.9878 144.9C70.9878 149.465 74.6884 153.166 79.2533 153.166H375.585C380.15 153.166 383.851 149.465 383.851 144.9C383.851 140.335 380.15 136.635 375.585 136.635Z" fill="white"/>
<defs>
<linearGradient id="paint0_linear_1163_79" x1="735.834" y1="313.872" x2="556.727" y2="313.872" gradientUnits="userSpaceOnUse">
<stop stop-color="#B9EBFF"/>
<stop offset="1" stop-color="#00B6FF"/>
</linearGradient>
<linearGradient id="paint1_linear_1163_79" x1="292.915" y1="479.903" x2="292.915" y2="-91.8232" gradientUnits="userSpaceOnUse">
<stop stop-color="white"/>
<stop offset="0.515625" stop-color="#00B6FF"/>
<stop offset="1" stop-color="#1363DF"/>
</linearGradient>
<linearGradient id="paint2_linear_1163_79" x1="290.06" y1="-56.3465" x2="290.06" y2="634.069" gradientUnits="userSpaceOnUse">
<stop stop-color="#00B6FF"/>
<stop offset="0.854167" stop-color="white"/>
</linearGradient>
<linearGradient id="paint3_linear_1163_79" x1="441.527" y1="79.4358" x2="-224.09" y2="79.4358" gradientUnits="userSpaceOnUse">
<stop stop-color="white"/>
<stop offset="0.48" stop-color="#BAEBFF"/>
<stop offset="1" stop-color="#00B6FF"/>
</linearGradient>
</defs>
</svg>
